<svg id="enso" xmlns="http://www.w3.org/2000/svg" viewBox="0 0 512 512"><title>Artboard 1</title><path id="path" d="M401.78,181.73c-.65-1.44-1.55-2.78-2.34-4.17,0,1.43.12,2.87,0,4.29a7.72,7.72,0,0,1-.74,2c-.49-.38-1.29-.66-1.44-1.15a66.91,66.91,0,0,1-1.8-7.09c0-.17-9.28-11.68-5-10.31.11,0,.74-.83.64-1a26.78,26.78,0,0,0-2.19-3.73c-.32-.43-1.06-.56-1.61-.83a6.81,6.81,0,0,1-.49,3.6c-2.23-1.3-6.11-5.56-3.85-8.53-1.26-1.36-2.58-1.32-4,.1-2.59-2.51-5.06-5.15-7.45-7.85-.2-.22.35-1.6.55-1.6,1.39.32,2.77.7,4.13,1.15-.14-.64-.07-1.46-.45-1.87a104.15,104.15,0,0,0-24.92-19.29c-4.66-2.59-38-19.9-37-15.87a9.83,9.83,0,0,1,.14,1.81c-.75-.11-1.95,0-2.18-.36-1.85-3.26-11.08-8.61-14.87-9.79-7.87-2.45-2.66,3.06-5.26,5a12.71,12.71,0,0,1-10.21-3.76c-.51-.27-.73-1.08-1.16-1.57-2.06-2.34-5.8,2.17-7.76-2.21-2.37-5.31-27.38-2.7-32.64-2.3a7.62,7.62,0,0,1,6.88,2.86c-6.86,6.15-29.26,4.7-39,7.39-4.4,1.23-11.34,2.5-15.17,5.19,5.4-3.78-12.72,9.55-7.47,8.45-3,.62-30.34,3.67-24.49,13.16,2,3.18-24.84,31-27,33.85a117.27,117.27,0,0,0-19.36,37.29C98.57,257.12,102,313.4,137.29,357.67c3.9,4.88,8.92,8.89,13.58,13.12,5.18,4.7,18,5.29,24.75,8.42,7.87,3.68,15.54,8.15,21.63,14.5,11.32,11.79,9.12,22.4,8.26,37.86-.17,3.12.45,30.23-7.54,25.83a3.13,3.13,0,0,0-2.92.73,48.06,48.06,0,0,1-8.72,11.15c-4.52,2.07-9.06,4.14-13.74,5.76-6.6,2.28-13.35,3.78-20.49,3.11-8.81-.84-22.72-11.23-30.16-16.12-12.72-8.34-24.12-18.33-34.87-28.92-17-16.74-32.17-38.61-40.9-60.84-2.78-7.09-7.29-13.53-9.82-20.69C.09,249.1,37.55,113.83,138.72,63.29c29.47-14.72,61.2-26.93,94.16-28.94,22.71-1.39,47.38-.85,69.38,4.19,15.07,3.46,63.62,15.69,71.35,29.91,2-1.12,15.05,4.61,15,6.3-.07,1.43,5.87,10.35,7.06,11.66a2.54,2.54,0,0,0,.86.41,3.45,3.45,0,0,0-.67-2.95,13.44,13.44,0,0,1,.53-2.76,118,118,0,0,0,8.57,8.46c.11.11.33.29.41.25,1.05-.49,2.08-1,3.12-1.54.13,1.2-.09,2.61.48,3.53,3,4.84,11.54,10.65,15.61,14.24,8.1,7.16,19.44,19,24.56,28.78,1.95,3.73,3.44,7.79,5.88,11.17,6.55,9.06,8.69,17.55,12.47,27.53,1.1,2.89,5.52,1.1,2.87,5a2.24,2.24,0,0,0-.23,1.82c6.75,18,10,36.57,14.13,55.31a3.2,3.2,0,0,0,1,1.93c2.72,1.7,2.82,1.94,1.22,4.37-1.16,1.77-.76,20.62,2.25,19.47.26-.09,1.17.82,1.29,1.37s-.73,1.45-1,1.4c-1.12-.25-2.37,36.22-2.77,39.33-.05.39-.67.7-1,1.05l.1.1-.55-10.26-.83-.08c-.28,3.17-3,17.89-2.79,18.38-2.36-5.32-.19-37.61,3.85-40.93V258.52l-1-.07c-.13.34-.29.66-.4,1-.27.81-.52,1.63-.78,2.45-2.59-4.64-2.13-12.14-2.74-17.21-.09-.79-.87-1.49-1.34-2.23-2.8,7.26.43,19.18,1,26.9a124.33,124.33,0,0,1,0,22.5c-.47,5.26-.81,10.53-1.28,15.78-1,10.95-2.41,21.78-3.81,32.67a5.88,5.88,0,0,0,.2,3c.3.68-1.56,14.82-2.95,13.74a3.7,3.7,0,0,0,4.35-.26c1.81.16,3.07,2.78,2.34,4.54a87.18,87.18,0,0,1-9.18,17.55l.08-.06-1.34.42a27.28,27.28,0,0,0-.16-3,10.82,10.82,0,0,0-.68-1.93c-3,1.73-2.52,5.31-2.94,8.64l.19-.09c-5.56.07-4.63,2.42-8.19,9.11a3.18,3.18,0,0,0-.1,1.17c4.67,0,0,2.75,1.1,3.8l.14-.13-2.13,1,.12.09c-.47-1.17-1.38-2.62-2.29-.87a17.66,17.66,0,0,1-8.31,7.7c-1.31.66-2.39,1.07-1.69,2.87.19.48-.17,1.69-.43,1.74-3.58.63-2.92,4.38-4.7,6.21a55.82,55.82,0,0,0-10.77,9.63c-2.54,5.35-13.55,13.14-18.06,16.21-4.08,2.77-6.73,7.81-12.4,8.25-2.38.19-12.47,9.57-14.53,10.59-4.67,2.29-5.91,4.59-11.35,5.15-6.13.63,8.69-9.25,9-9.45l7.39-5-.12.09a10.32,10.32,0,0,0,6.48-4.24c-.69-.19-1.39-.36-2.07-.58a12.89,12.89,0,0,1-1.21-.51c.57-.54,1-1.22,1.94-1.28a4.18,4.18,0,0,0,3.65-2.76c.81-2,7.76,2.43,5.39-2.17-.19-.38.63-1.72.66-1.71,5.48,2,.32-3.38,1-4.85a42.93,42.93,0,0,0,6.13-1.43c.57-.17,1.18-.71,1.67-.6,2.53.59,3,.64,3.16-.65.76-5.2,4-8.35,8.33-10.72,2.95-1.61,3.72-6.17,8-6-.82-3.27,6.57-11.61,10.06-10,1.84-2.83,3.82-5.58,5.46-8.52.88-1.57.9-3.61,1.77-5.18,1.16-2.07,3.17-3.71,4.07-5.84a11.43,11.43,0,0,0,.55-9.73c-.56.51-1.32.92-1.64,1.54-1.64,3.19-3.12,6.46-4.76,9.64-.3.57-1.13.87-1.71,1.29a6.24,6.24,0,0,1,.71-3.23,5.22,5.22,0,0,0-.05-1.24c-4.27,2.78-.46,9.52-5.66,12.2,1.7-5.22-3.23-2.88-5.53-.78a7.41,7.41,0,0,1,2-.15c.25,0,.56.8.52,1.19a1.49,1.49,0,0,1-.85.91c-1.78.75-3.62,1.35-5.38,2.15-.5.23-.78,1-1.16,1.46a8.67,8.67,0,0,0,1.84-.09,10.5,10.5,0,0,0,1.78-.81c0,.65.25,1.55-.08,1.89-1.73,1.85-3.58,3.59-5.47,5.28a6,6,0,0,1-1.8.76,9.33,9.33,0,0,1,1.62.37c.8.34,1.55.79,2.33,1.19-.85.65-1.7,1.83-2.53,1.82-1.62,0-3.57,2.2-5.05-.54-.16-.28-2.31.53-3.54.83a10.6,10.6,0,0,1,1.53,1.84,2.59,2.59,0,0,1,.18,1.83c-.73,2-3.83,2.89-2.85,5.81,0,.09-.48.37-.73.56-2.3-4-3.34,3.13-5.52.65-.05-.05-.72.5-1.14.69-1.28.57,0,4.28-2,2.69-5.19-4.11-3.09-8-9.6-3.49q-2.34,2.24.74,1.95c2.18-1.15,2.8-.92,2.15,1.71-.4,1.64-.8,4.47,2.47,1.84.29-.24.88-.12,1.33-.17-.64,2.76-2.32,4.2-5.36,3.53a4.38,4.38,0,0,0-1.51.25c4.37,8.89-11.83,7.92-11.91,8.3-.41,1.91-1.44,2.88-3.05,1.81-2-1.51-2.68-3.33-2.14-5.45-.17-.34-17.3,10.81-16.59,10.37-1.17.72-13.91,9.24-16.47,9.17-9.15-.22-22.64,6.89-31.73,9a7.54,7.54,0,0,0-1.84,1,8.27,8.27,0,0,0,2.13.8,10.86,10.86,0,0,0,2.95-.23,142.74,142.74,0,0,0,37.47-12.08,6,6,0,0,1,1.91-.52,5.48,5.48,0,0,1,1.43.17c-.23.54-.32,1.4-.72,1.58-1.77.78-2.38,4-5.21,2.52-1.41,3-2.55,1.42-2.59,5.45-.47-.05-1.08.07-1.37-.18-3.5-3-18.33,2.6-22.65,3.87,2.59-.76-10.12,6.5-8.74,2-.82.12-2-.08-2.41.39-2.91,3.46-4.94-.81-7.43-.71a3.7,3.7,0,0,1,2.33-3.16c-2.72-.18-5.48-.71-8.17-.47-6.23.57-12.41,1.74-18.64,2.24s-12.47.44-18.7.67c-4.23.15-10.45,1.7-14-1a13.34,13.34,0,0,1,7.85-1.72,6.9,6.9,0,0,1,2.35.65c.43.14,1,.62,1.21.49,6.17-3.55,13.07-2.53,19.69-3.21a129.63,129.63,0,0,0,15.22-2.13l-9.26-1.44.09.13c2.51-7.06,5-4.45,10.12-7.58-.43-.44-.78-1-1.29-1.29q-3.76-3.48-5.16.56c-.2-1.07-.87-2.38-.48-3.14s1.81-1.33,2.84-1.85c.41-.2,1,.08,1.47-.1a24.62,24.62,0,0,0,2.54-1.34,22.76,22.76,0,0,0-3.14-2.08q-4.35.44-2.58-3.34a6.6,6.6,0,0,1,3.16-1.26,5.17,5.17,0,0,1,2,.38c-.16-.89-2.19-3.88-1.1-4.45l3.56,1.27a8.74,8.74,0,0,1,1.84,2,10.32,10.32,0,0,1,.63-2.4c.53-1,1.17-2.46,2-2.67a31.1,31.1,0,0,1,8.34-1c1.29.05,2.48,1.69,3.81,2.46.43.25,1.14,0,1.72,0-.17-.51-.21-1.35-.53-1.47-2.5-.95-2.13-1.83-.33-3.35,2.71-2.28,9.29-3.37,12.79-1.85q3.06,2.22,5.6-.39a7.33,7.33,0,0,1-4-3.21,4.41,4.41,0,0,1,6-.67,7.65,7.65,0,0,1,1.75,1.63c0-.78.37-1.8,0-2.3-1.88-2.6.58-3.3,1.89-4.08,4.84-2.91,9.93-5.24,15.74-5.48,5.3-.22,9-3.61,13.73-6.84a11.78,11.78,0,0,0-1.64.27c-1.74.77-3.47,1.56-5.2,2.34,2.12-2.54,15-11.13,12.23-14.62a8.94,8.94,0,0,0-1.16-1.05,7.23,7.23,0,0,1,1.75-.71c.43-.06,1,.54,1.34.41a35.83,35.83,0,0,0,3.84-1.87,1.11,1.11,0,0,0-.12-.75c-1.69-.38-3.56-1.32-5.05-.91a19.68,19.68,0,0,0-5.93,3.38c-5,3.57-3.83,6-10.88,9.13-1.19.53-2.13,1.82-3.34,2.08s-2.75-.25-4.14-.42a34.06,34.06,0,0,1,2.79-2.16,5.68,5.68,0,0,1,2.28-.9c4.8-.51,5.89-4.36,7.06-8,.73-2.24,6.75-8.48,8.79-8.49,1,1.66.52,3.22-1.55,4.69,2.8-1.1,5.6-2.19,8.37-3.36.09,0-.24-.88-.23-1.35s1.18-6.35,3.08-2.43c2.43.82,4.29,0,5.6-2.43.45-.34,1.23-.22,1.86-.3,0,.58,0,1.17,0,1.75s-.12,1.36-.18,2a15.37,15.37,0,0,0,1.69-1.52q3.15-3.76,6.19-7.61a1.7,1.7,0,0,0,.28-1.45c-1.93-3.52,13.05-14.17,10.15-22.13-1.48-4.07,1.93-11.27,5.74-13.47a4.39,4.39,0,0,0,1.92-2.45,34,34,0,0,0,.58-5.89c0-.54-.42-1.1-.64-1.66a6,6,0,0,0-1.27,1.19c.11,1.43-.61,2.27-2.16,2.54-.22-.69-.75-1.91-.6-2,2.69-1.63.06-8,6-6.69.21-1.26.43-2.53.64-3.8l-.11.15c3.32,0,4.11-2.4,4.27-5,.35-5.62.56-11.26.68-16.89.27-13.33-1.11-26.42-1.34-39.59-.25-13.68-6.47-25.92-9.47-38.93-.81-3.48-1.92-6.89-2.89-10.33l-1,.23a5.77,5.77,0,0,1,.54,6.26c-.65-.34-1.8-.58-1.89-1-.72-3.66-3-6.59-1.61-11.25Zm75.06,56.84,1.59-.18c-1.29-7.38-1.4-17.93-4.75-24.62-1.87,3.28.12,11.21.66,14.48C474.92,231.74,476,235.14,476.84,238.57Z"/></svg>